<svg width="117" height="31" viewBox="0 0 117 31" fill="none" xmlns="http://www.w3.org/2000/svg">
<path d="M13.128 21.12V21.696C13.128 22.272 13.168 22.672 13.248 22.896C13.328 23.104 13.464 23.208 13.656 23.208C13.864 23.208 14.072 23.048 14.28 22.728C14.504 22.408 14.688 21.928 14.832 21.288L15.264 21.384C14.88 23.288 13.96 24.24 12.504 24.24C11.224 24.24 10.584 23.288 10.584 21.384V19.368C10.584 18.136 10.24 17.296 9.552 16.848C8.864 16.4 7.928 16.176 6.744 16.176C6.456 16.176 6.04 16.192 5.496 16.224V23.616H7.488V24H1.248V23.616H3V8.784H1.248V8.4H7.488V8.784H5.496V15.768C7.56 15.768 9.208 15.248 10.44 14.208C11.688 13.168 12.312 11.976 12.312 10.632C12.312 9.944 12.112 9.432 11.712 9.096C11.328 8.76 10.888 8.592 10.392 8.592C9.896 8.592 9.496 8.736 9.192 9.024C8.904 9.312 8.76 9.568 8.76 9.792C8.76 10.016 8.824 10.128 8.952 10.128C9.08 10.128 9.168 10.064 9.216 9.936C9.408 9.44 9.776 9.192 10.32 9.192C10.672 9.192 10.968 9.32 11.208 9.576C11.464 9.832 11.592 10.184 11.592 10.632C11.592 11.08 11.432 11.44 11.112 11.712C10.792 11.984 10.408 12.12 9.96 12.12C9.512 12.12 9.112 11.944 8.76 11.592C8.424 11.24 8.256 10.784 8.256 10.224C8.256 9.648 8.456 9.16 8.856 8.76C9.256 8.36 9.776 8.16 10.416 8.16C11.056 8.16 11.6 8.384 12.048 8.832C12.512 9.264 12.744 9.848 12.744 10.584C12.744 12.472 11.712 14.04 9.648 15.288L9.744 15.48C10.816 15.544 11.584 15.856 12.048 16.416C12.544 17.024 12.84 17.632 12.936 18.24C13.064 19.2 13.128 20.16 13.128 21.12ZM21.9593 23.64H23.5433V24H18.2393V23.64H19.8233V13.32H18.1193V12.96H18.6233C19.8713 12.96 20.9833 12.856 21.9593 12.648V23.64ZM19.7993 10.344C19.5433 10.072 19.4153 9.736 19.4153 9.336C19.4153 8.936 19.5433 8.6 19.7993 8.328C20.0713 8.056 20.4073 7.92 20.8073 7.92C21.2073 7.92 21.5433 8.056 21.8153 8.328C22.0873 8.6 22.2233 8.936 22.2233 9.336C22.2233 9.736 22.0873 10.072 21.8153 10.344C21.5433 10.6 21.2073 10.728 20.8073 10.728C20.4073 10.728 20.0713 10.6 19.7993 10.344ZM31.5328 12.48C33.9648 12.48 35.1808 13.304 35.1808 14.952C35.1808 15.432 35.0208 15.84 34.7008 16.176C34.3968 16.496 34.0288 16.656 33.5968 16.656C33.1808 16.656 32.8368 16.536 32.5648 16.296C32.3088 16.04 32.1808 15.736 32.1808 15.384C32.1808 15.016 32.2848 14.712 32.4928 14.472C32.7008 14.216 32.9808 14.088 33.3328 14.088C33.8768 14.088 34.1968 14.296 34.2928 14.712C34.3088 14.856 34.3808 14.928 34.5088 14.928C34.6528 14.928 34.7248 14.856 34.7248 14.712C34.7248 14.264 34.5008 13.864 34.0528 13.512C33.6208 13.144 32.9488 12.96 32.0368 12.96C31.1408 12.96 30.3968 13.128 29.8048 13.464C29.2288 13.8 28.9408 14.272 28.9408 14.88C28.9408 15.472 29.1728 15.952 29.6368 16.32C30.1008 16.688 30.6608 16.992 31.3168 17.232C31.9728 17.472 32.6288 17.728 33.2848 18C33.9568 18.256 34.5248 18.632 34.9888 19.128C35.4528 19.624 35.6848 20.224 35.6848 20.928C35.6848 22.128 35.2528 23.024 34.3888 23.616C33.5408 24.192 32.4848 24.48 31.2208 24.48C29.9568 24.48 28.9408 24.256 28.1728 23.808C27.4048 23.36 27.0208 22.68 27.0208 21.768C27.0208 21.288 27.1728 20.888 27.4768 20.568C27.7968 20.232 28.1648 20.064 28.5808 20.064C29.0128 20.064 29.3568 20.192 29.6128 20.448C29.8848 20.688 30.0208 20.992 30.0208 21.36C30.0208 21.712 29.9168 22.016 29.7088 22.272C29.5008 22.512 29.2208 22.632 28.8688 22.632C28.3248 22.632 28.0048 22.424 27.9088 22.008C27.8928 21.864 27.8128 21.792 27.6688 21.792C27.5408 21.792 27.4768 21.864 27.4768 22.008C27.4768 22.488 27.7408 22.944 28.2688 23.376C28.8128 23.792 29.6128 24 30.6688 24C32.9888 24 34.1488 23.248 34.1488 21.744C34.1488 20.816 33.3568 20.064 31.7728 19.488C31.1008 19.248 30.4368 19 29.7808 18.744C29.1248 18.472 28.5648 18.088 28.1008 17.592C27.6368 17.096 27.4048 16.496 27.4048 15.792C27.4048 14.768 27.8048 13.96 28.6048 13.368C29.4208 12.776 30.3968 12.48 31.5328 12.48ZM43.9074 12.48C45.8114 12.48 47.0674 12.912 47.6754 13.776C48.2994 14.624 48.6114 16.112 48.6114 18.24V22.488C48.6114 23.144 48.7554 23.472 49.0434 23.472C49.6354 23.472 50.0274 22.552 50.2194 20.712L50.6514 20.76C50.4114 23.24 49.6034 24.48 48.2274 24.48C47.8274 24.48 47.5154 24.336 47.2914 24.048C47.0834 23.76 46.9474 23.448 46.8834 23.112C46.8354 22.76 46.8114 22.328 46.8114 21.816H46.6674C46.4594 22.664 46.0354 23.32 45.3954 23.784C44.7554 24.248 43.9314 24.48 42.9234 24.48C41.9314 24.48 41.0594 24.216 40.3074 23.688C39.5554 23.144 39.1794 22.368 39.1794 21.36C39.1794 20.608 39.3954 19.984 39.8274 19.488C40.7234 18.464 42.7554 17.952 45.9234 17.952C46.0994 17.952 46.2834 17.952 46.4754 17.952V16.776C46.4754 15.512 46.2594 14.56 45.8274 13.92C45.3954 13.28 44.6434 12.96 43.5714 12.96C42.5154 12.96 41.7394 13.176 41.2434 13.608C40.7474 14.04 40.4994 14.488 40.4994 14.952C40.4994 15.096 40.5634 15.168 40.6914 15.168C40.8354 15.168 40.9154 15.096 40.9314 14.952C41.0274 14.536 41.3474 14.328 41.8914 14.328C42.2434 14.328 42.5234 14.456 42.7314 14.712C42.9394 14.952 43.0434 15.256 43.0434 15.624C43.0434 15.976 42.9074 16.28 42.6354 16.536C42.3794 16.776 42.0354 16.896 41.6034 16.896C41.1874 16.896 40.8194 16.736 40.4994 16.416C40.1954 16.08 40.0434 15.672 40.0434 15.192C40.0434 14.296 40.4194 13.624 41.1714 13.176C41.9234 12.712 42.8354 12.48 43.9074 12.48ZM46.4754 19.992V18.384C46.3154 18.384 46.0594 18.384 45.7074 18.384C45.3714 18.384 44.9634 18.408 44.4834 18.456C44.0194 18.504 43.5394 18.624 43.0434 18.816C42.0194 19.184 41.5074 20 41.5074 21.264C41.5074 22.032 41.6914 22.648 42.0594 23.112C42.4274 23.576 43.0194 23.808 43.8354 23.808C44.6514 23.808 45.2914 23.44 45.7554 22.704C46.2354 21.968 46.4754 21.064 46.4754 19.992ZM58.1968 23.64V24H52.8928V23.64H54.4768V13.32H52.7728V12.96H53.2768C54.5408 12.96 55.6688 12.856 56.6608 12.648V15.048H56.8048C57.0768 14.28 57.5328 13.664 58.1728 13.2C58.8288 12.72 59.5568 12.48 60.3568 12.48C61.7488 12.48 62.7008 12.896 63.2128 13.728C63.7248 14.544 63.9808 15.768 63.9808 17.4V23.64H65.5648V24H60.2608V23.64H61.8448V17.736C61.8448 15.928 61.7088 14.736 61.4368 14.16C61.3088 13.904 61.1088 13.672 60.8368 13.464C60.5808 13.256 60.1968 13.152 59.6848 13.152C59.1728 13.152 58.6848 13.336 58.2208 13.704C57.7728 14.072 57.4368 14.576 57.2128 15.216C56.8128 16.352 56.6128 17.712 56.6128 19.296V23.64H58.1968Z" fill="black"/>
<path d="M68.4422 21.912C68.7142 22.584 69.2262 23.104 69.9782 23.472C70.7302 23.84 71.6022 24.024 72.5942 24.024C73.6022 24.024 74.4982 23.744 75.2822 23.184C76.0662 22.624 76.4582 21.816 76.4582 20.76C76.4582 19.944 76.1782 19.264 75.6182 18.72C75.0582 18.176 74.3782 17.744 73.5782 17.424C72.7942 17.088 72.0022 16.736 71.2022 16.368C70.4182 16 69.7462 15.472 69.1862 14.784C68.6262 14.096 68.3462 13.248 68.3462 12.24C68.3462 10.912 68.8102 9.864 69.7382 9.096C70.6822 8.312 71.8182 7.92 73.1462 7.92C74.4902 7.92 75.5542 8.208 76.3382 8.784C77.1222 9.344 77.5142 10.056 77.5142 10.92C77.5142 11.464 77.3382 11.912 76.9862 12.264C76.6502 12.616 76.2582 12.792 75.8102 12.792C75.3622 12.792 74.9782 12.656 74.6582 12.384C74.3382 12.112 74.1782 11.752 74.1782 11.304C74.1782 10.856 74.2982 10.504 74.5382 10.248C74.7942 9.992 75.0982 9.864 75.4502 9.864C76.0102 9.864 76.3862 10.112 76.5782 10.608C76.6262 10.736 76.7062 10.8 76.8182 10.8C76.9942 10.8 77.0662 10.72 77.0342 10.56C76.9542 9.984 76.5942 9.48 75.9542 9.048C75.3302 8.6 74.5382 8.376 73.5782 8.376C72.6342 8.376 71.8262 8.64 71.1542 9.168C70.4982 9.68 70.1702 10.352 70.1702 11.184C70.1702 12 70.4502 12.68 71.0102 13.224C71.5702 13.768 72.2422 14.208 73.0262 14.544C73.8262 14.864 74.6182 15.208 75.4022 15.576C76.2022 15.944 76.8822 16.472 77.4422 17.16C78.0022 17.848 78.2822 18.696 78.2822 19.704C78.2822 21.24 77.7222 22.424 76.6022 23.256C75.4822 24.072 74.2102 24.48 72.7862 24.48C71.3782 24.48 70.1942 24.168 69.2342 23.544C68.2902 22.904 67.8182 22.04 67.8182 20.952C67.8182 20.408 67.9862 19.96 68.3222 19.608C68.6742 19.256 69.0742 19.08 69.5222 19.08C69.9702 19.08 70.3542 19.216 70.6742 19.488C70.9942 19.76 71.1542 20.12 71.1542 20.568C71.1542 21.016 71.0262 21.368 70.7702 21.624C70.5302 21.88 70.2342 22.008 69.8822 22.008C69.3062 22.008 68.9222 21.76 68.7302 21.264C68.6822 21.136 68.5942 21.072 68.4662 21.072C68.3382 21.072 68.2742 21.136 68.2742 21.264C68.2742 21.392 68.3302 21.608 68.4422 21.912ZM87.1599 12.48C88.3599 12.48 89.3599 12.736 90.1599 13.248C90.9759 13.76 91.3839 14.528 91.3839 15.552C91.3839 17.136 90.4799 18.112 88.6719 18.48C87.7599 18.656 86.6239 18.744 85.2639 18.744H84.1359V19.44C84.1359 20.736 84.3999 21.792 84.9279 22.608C85.4719 23.408 86.2559 23.808 87.2799 23.808C88.3199 23.808 89.1279 23.504 89.7039 22.896C90.2959 22.288 90.7119 21.504 90.9519 20.544L91.3839 20.592C91.1279 21.76 90.6079 22.704 89.8239 23.424C89.0559 24.128 88.0799 24.48 86.8959 24.48C85.2319 24.48 83.9679 23.936 83.1039 22.848C82.2399 21.744 81.8079 20.288 81.8079 18.48C81.8079 16.672 82.2719 15.224 83.1999 14.136C84.1279 13.032 85.4479 12.48 87.1599 12.48ZM84.1359 18.312H84.9759C86.2719 18.312 87.1759 18.184 87.6879 17.928C88.2159 17.672 88.5759 17.36 88.7679 16.992C88.9599 16.608 89.0559 16.072 89.0559 15.384C89.0559 14.696 88.8799 14.112 88.5279 13.632C88.1919 13.136 87.6719 12.888 86.9679 12.888C86.2639 12.888 85.6879 13.144 85.2399 13.656C84.8079 14.152 84.5119 14.736 84.3519 15.408C84.2079 16.08 84.1359 16.824 84.1359 17.64V18.312ZM98.1816 13.32V21.48C98.1816 22.824 98.2696 23.568 98.4456 23.712C98.5416 23.792 98.6696 23.832 98.8296 23.832C99.2296 23.832 99.6136 23.6 99.9816 23.136C100.366 22.672 100.678 22.168 100.918 21.624L101.302 21.768C100.998 22.536 100.59 23.184 100.078 23.712C99.5656 24.224 98.9736 24.48 98.3016 24.48C97.3576 24.48 96.7416 24.2 96.4536 23.64C96.1816 23.064 96.0456 22.168 96.0456 20.952V13.32H94.3416V12.96H94.5096C96.3496 12.96 97.4696 11.904 97.8696 9.792H98.1816V12.96H101.086V13.32H98.1816ZM112.344 13.32H110.64V12.96H111.144C112.392 12.96 113.504 12.856 114.48 12.648V23.64H116.064V24H112.296V21.912H112.152C111.88 22.68 111.416 23.304 110.76 23.784C110.12 24.248 109.4 24.48 108.6 24.48C107.24 24.48 106.32 24.072 105.84 23.256C105.376 22.44 105.144 21.208 105.144 19.56V13.32H103.44V12.96H103.944C105.192 12.96 106.304 12.856 107.28 12.648V19.224C107.28 20.728 107.336 21.672 107.448 22.056C107.56 22.44 107.68 22.768 107.808 23.04C108.064 23.552 108.496 23.808 109.104 23.808C109.728 23.808 110.264 23.624 110.712 23.256C111.176 22.888 111.52 22.384 111.744 21.744C112.144 20.608 112.344 19.248 112.344 17.664V13.32Z" fill="#64B900"/>
<path d="M12 2.31694C12 2.31694 13.14 3.40791 14.882 6.45928C16.6239 9.51065 19.729 12.1098 22.4307 11.0721C22.4307 11.0721 24.9143 3.85084 12 2.31694Z" fill="#64B900"/>
<path d="M14.8873 3.87069C16.2289 4.91525 17.5306 6.0127 18.7679 7.16182C19.9557 8.33763 21.2758 9.4837 22 11C21.371 9.43974 20.0355 8.26289 18.8196 7.11174C17.5672 5.96918 16.2519 4.8903 14.8788 3.87936L14.8873 3.87069Z" fill="#3D8709"/>
<path d="M20.9991 9.31165C20.9693 8.68629 20.8998 8.06348 20.791 7.44699C20.7497 7.21693 20.7 6.98653 20.6419 6.77502C20.6113 6.66836 20.5821 6.56679 20.5543 6.47029C20.5266 6.37379 20.5003 6.28236 20.4584 6.20368C20.4294 6.12882 20.3955 6.0559 20.3571 5.98537C20.3325 5.92909 20.3031 5.87499 20.2693 5.82365C20.2143 5.73773 20.1812 5.68952 20.1812 5.68952C20.1812 5.68952 20.2118 5.73847 20.265 5.82765C20.2978 5.87937 20.3263 5.9337 20.3502 5.9901C20.3699 6.05866 20.414 6.12573 20.4414 6.21134C20.4687 6.29695 20.5063 6.37964 20.5187 6.48052C20.5312 6.58141 20.5757 6.6786 20.6063 6.78526C20.6662 6.9935 20.6999 7.22575 20.7335 7.458C20.7672 7.69025 20.7977 7.92069 20.8186 8.13736C20.8396 8.35402 20.8543 8.55873 20.8636 8.73476C20.8839 9.08356 20.8849 9.31697 20.8849 9.31697L20.9991 9.31165Z" fill="#3D8709"/>
<path d="M20.7022 6.99416L20.7247 6.95745C20.7444 6.92183 20.7614 6.88478 20.7755 6.84662C20.7947 6.79417 20.8097 6.74024 20.8201 6.68536C20.8278 6.65559 20.8339 6.6254 20.8381 6.59494C20.8301 6.567 20.8443 6.52994 20.8464 6.49908C20.8508 6.46757 20.8527 6.43577 20.8521 6.40397L20.8502 6.31104C20.8476 6.28208 20.8466 6.253 20.8472 6.22393L20.826 6.15028C20.8132 6.05775 20.8033 5.99461 20.8033 5.99461C20.8033 5.99461 20.8074 6.05667 20.8159 6.15321C20.8217 6.17353 20.829 6.19892 20.821 6.2287C20.8131 6.25849 20.8204 6.28388 20.8182 6.31474L20.8136 6.40405C20.8127 6.43568 20.8088 6.46717 20.802 6.49809L20.7898 6.58959L20.7651 6.6764C20.7498 6.7265 20.7318 6.77573 20.7111 6.82389C20.6901 6.86568 20.6727 6.90093 20.6592 6.92128L20.6353 6.95291L20.7022 6.99416Z" fill="#3D8709"/>
<path d="M19.4554 7.84182C19.4339 7.3799 19.3827 6.91986 19.302 6.46456C19.2724 6.29437 19.2351 6.12638 19.1924 5.9682C19.1698 5.88948 19.1486 5.81584 19.1274 5.74219C19.1063 5.66855 19.088 5.60506 19.0545 5.54596C19.021 5.48686 19.0031 5.43426 18.9809 5.38566C18.9624 5.3445 18.9408 5.30475 18.9164 5.26674L18.852 5.16705L18.9113 5.2682C18.937 5.3063 18.958 5.34732 18.974 5.3904C19.0001 5.44286 19.023 5.49689 19.0425 5.55216C19.06 5.6131 19.0797 5.68167 19.1002 5.75277C19.1206 5.82388 19.1418 5.89753 19.1644 5.97625C19.2089 6.13116 19.2335 6.3028 19.2598 6.47118C19.2862 6.63956 19.3056 6.81267 19.3222 6.97562C19.3387 7.13857 19.3483 7.28702 19.3546 7.41442C19.3742 7.68372 19.3707 7.84418 19.3707 7.84418L19.4554 7.84182Z" fill="#3D8709"/>
<path d="M21.0059 9.28769C20.3834 9.38416 19.7552 9.4398 19.1255 9.45425C18.8899 9.45873 18.6546 9.45487 18.435 9.43826C18.3262 9.43377 18.2204 9.4202 18.1186 9.41097C18.0168 9.40175 17.9255 9.38125 17.8313 9.36983C17.7523 9.35547 17.6742 9.33661 17.5974 9.31333C17.5375 9.30055 17.4788 9.28245 17.4221 9.25924L17.2704 9.20112L17.4232 9.25343C17.4885 9.27538 17.5557 9.29104 17.624 9.3002C17.701 9.32107 17.7792 9.33715 17.8582 9.34836C17.944 9.35943 18.0371 9.37666 18.1433 9.38188C18.2495 9.3871 18.3495 9.3996 18.46 9.40082C18.6775 9.40981 18.9113 9.40859 19.1447 9.39649C19.3781 9.38438 19.6126 9.36647 19.8297 9.34532C20.0467 9.32418 20.2514 9.29834 20.4234 9.27366C20.7724 9.22284 20.9996 9.17953 20.9996 9.17953L21.0059 9.28769Z" fill="#3D8709"/>
<path d="M19.5017 7.95497C19.0446 8.02603 18.5833 8.06677 18.1208 8.07692C17.9508 8.08219 17.7807 8.07878 17.611 8.06673C17.5307 8.06509 17.4499 8.05255 17.3765 8.04617C17.303 8.03979 17.235 8.0236 17.1692 8.01502C17.1112 8.00442 17.0539 7.9906 16.9975 7.97364C16.9525 7.96458 16.9087 7.95042 16.8669 7.93144L16.7556 7.8892L16.8687 7.92817C16.9105 7.94459 16.9537 7.95702 16.9979 7.96529C17.0547 7.98069 17.1123 7.99257 17.1706 8.00086C17.2364 8.00944 17.3037 8.02309 17.379 8.0262C17.4543 8.02931 17.5317 8.04004 17.6121 8.04169C17.7735 8.04752 17.947 8.04716 18.1175 8.03664C18.288 8.02611 18.4644 8.01667 18.6251 8.00073L19.0639 7.94609C19.3286 7.90851 19.4882 7.87913 19.4882 7.87913L19.5017 7.95497Z" fill="#3D8709"/>
<path d="M17.7791 8.07619L17.753 8.1002C17.731 8.11923 17.7073 8.13617 17.6821 8.15081C17.6469 8.1726 17.61 8.1915 17.5717 8.2073L17.5055 8.22632L17.4368 8.24606C17.4147 8.25516 17.3917 8.26178 17.3681 8.26581L17.3045 8.28409L17.2434 8.30164L17.1863 8.3043L17.0696 8.31036L17.1841 8.29668L17.2401 8.2806L17.3648 8.24476C17.3872 8.23965 17.4093 8.2333 17.431 8.22575L17.4971 8.20673L17.5607 8.18845C17.595 8.17118 17.628 8.15159 17.6596 8.1298C17.6816 8.11365 17.7022 8.09576 17.7213 8.07631L17.7431 8.0563L17.7791 8.07619Z" fill="#3D8709"/>
<g filter="url(#filter0_d_1_6)">
<path d="M30.1853 2.31694C30.1853 2.31694 29.0453 3.40791 27.3033 6.45928C25.5614 9.51065 22.4563 12.1098 19.7546 11.0721C19.7546 11.0721 17.271 3.85084 30.1853 2.31694Z" fill="#64B900"/>
<path d="M27.298 3.87069C25.9564 4.91525 24.6547 6.0127 23.4174 7.16182C22.2296 8.33763 20.9095 9.4837 20.1853 11C20.8143 9.43974 22.1498 8.26289 23.3657 7.11174C24.6181 5.96918 25.9334 4.8903 27.3065 3.87936L27.298 3.87069Z" fill="#3D8709"/>
<path d="M21.1862 9.31165C21.216 8.68629 21.2855 8.06348 21.3943 7.44699C21.4356 7.21693 21.4853 6.98653 21.5434 6.77502C21.574 6.66836 21.6032 6.56679 21.631 6.47029C21.6587 6.37379 21.685 6.28236 21.7269 6.20368C21.7559 6.12882 21.7898 6.0559 21.8282 5.98537C21.8528 5.92909 21.8822 5.87499 21.916 5.82365C21.971 5.73773 22.0041 5.68952 22.0041 5.68952C22.0041 5.68952 21.9735 5.73847 21.9203 5.82765C21.8875 5.87937 21.859 5.9337 21.8351 5.9901C21.8154 6.05866 21.7713 6.12573 21.7439 6.21134C21.7166 6.29695 21.679 6.37964 21.6666 6.48052C21.6541 6.58141 21.6096 6.6786 21.579 6.78526C21.5191 6.9935 21.4855 7.22575 21.4518 7.458C21.4181 7.69025 21.3876 7.92069 21.3667 8.13736C21.3457 8.35402 21.331 8.55873 21.3217 8.73476C21.3014 9.08356 21.3004 9.31697 21.3004 9.31697L21.1862 9.31165Z" fill="#3D8709"/>
<path d="M21.4831 6.99416L21.4606 6.95745C21.4409 6.92183 21.4239 6.88478 21.4098 6.84662C21.3906 6.79417 21.3757 6.74024 21.3652 6.68536C21.3575 6.65559 21.3514 6.6254 21.3472 6.59494C21.3552 6.567 21.341 6.52994 21.3389 6.49908C21.3345 6.46757 21.3326 6.43577 21.3332 6.40397L21.3351 6.31104C21.3377 6.28208 21.3387 6.253 21.3381 6.22393L21.3593 6.15028C21.3721 6.05775 21.382 5.99461 21.382 5.99461C21.382 5.99461 21.3779 6.05667 21.3694 6.15321C21.3636 6.17353 21.3563 6.19892 21.3643 6.2287C21.3722 6.25849 21.3649 6.28388 21.3671 6.31474L21.3717 6.40405C21.3726 6.43568 21.3765 6.46717 21.3833 6.49809L21.3955 6.58959L21.4202 6.6764C21.4355 6.7265 21.4535 6.77573 21.4742 6.82389C21.4952 6.86568 21.5126 6.90093 21.5261 6.92128L21.55 6.95291L21.4831 6.99416Z" fill="#3D8709"/>
<path d="M22.7299 7.84182C22.7514 7.3799 22.8026 6.91986 22.8833 6.46456C22.9129 6.29437 22.9502 6.12638 22.9929 5.9682C23.0155 5.88948 23.0367 5.81584 23.0579 5.74219C23.079 5.66855 23.0973 5.60506 23.1308 5.54596C23.1643 5.48686 23.1822 5.43426 23.2044 5.38566C23.2229 5.3445 23.2445 5.30475 23.2689 5.26674L23.3333 5.16705L23.274 5.2682C23.2483 5.3063 23.2273 5.34732 23.2113 5.3904C23.1852 5.44286 23.1623 5.49689 23.1428 5.55216C23.1253 5.6131 23.1056 5.68167 23.0851 5.75277C23.0647 5.82388 23.0435 5.89753 23.0209 5.97625C22.9764 6.13116 22.9518 6.3028 22.9255 6.47118C22.8991 6.63956 22.8797 6.81267 22.8631 6.97562C22.8466 7.13857 22.837 7.28702 22.8307 7.41442C22.8111 7.68372 22.8146 7.84418 22.8146 7.84418L22.7299 7.84182Z" fill="#3D8709"/>
<path d="M21.1794 9.28769C21.8019 9.38416 22.4301 9.4398 23.0598 9.45425C23.2954 9.45873 23.5307 9.45487 23.7503 9.43826C23.8591 9.43377 23.9649 9.4202 24.0667 9.41097C24.1685 9.40175 24.2598 9.38125 24.354 9.36983C24.433 9.35547 24.5111 9.33661 24.5879 9.31333C24.6478 9.30055 24.7065 9.28245 24.7632 9.25924L24.9149 9.20112L24.7621 9.25343C24.6968 9.27538 24.6296 9.29104 24.5613 9.3002C24.4843 9.32107 24.4061 9.33715 24.3271 9.34836C24.2413 9.35943 24.1482 9.37666 24.042 9.38188C23.9358 9.3871 23.8358 9.3996 23.7253 9.40082C23.5078 9.40981 23.274 9.40859 23.0406 9.39649C22.8072 9.38438 22.5727 9.36647 22.3556 9.34532C22.1386 9.32418 21.9339 9.29834 21.7619 9.27366C21.4129 9.22284 21.1857 9.17953 21.1857 9.17953L21.1794 9.28769Z" fill="#3D8709"/>
<path d="M22.6836 7.95497C23.1407 8.02603 23.602 8.06677 24.0645 8.07692C24.2345 8.08219 24.4046 8.07878 24.5743 8.06673C24.6546 8.06509 24.7354 8.05255 24.8088 8.04617C24.8823 8.03979 24.9503 8.0236 25.0161 8.01502C25.0741 8.00442 25.1314 7.9906 25.1878 7.97364C25.2328 7.96458 25.2766 7.95042 25.3184 7.93144L25.4297 7.8892L25.3166 7.92817C25.2748 7.94459 25.2316 7.95702 25.1874 7.96529C25.1307 7.98069 25.073 7.99257 25.0147 8.00086C24.9489 8.00944 24.8816 8.02309 24.8063 8.0262C24.731 8.02931 24.6536 8.04004 24.5732 8.04169C24.4118 8.04752 24.2383 8.04716 24.0678 8.03664C23.8973 8.02611 23.7209 8.01667 23.5602 8.00073L23.1214 7.94609C22.8567 7.90851 22.6971 7.87913 22.6971 7.87913L22.6836 7.95497Z" fill="#3D8709"/>
<path d="M24.4062 8.07619L24.4323 8.1002C24.4543 8.11923 24.478 8.13617 24.5032 8.15081C24.5384 8.1726 24.5753 8.1915 24.6136 8.2073L24.6798 8.22632L24.7485 8.24606C24.7706 8.25516 24.7936 8.26178 24.8172 8.26581L24.8808 8.28409L24.9419 8.30164L24.999 8.3043L25.1157 8.31036L25.0012 8.29668L24.9452 8.2806L24.8205 8.24476C24.7981 8.23965 24.776 8.2333 24.7543 8.22575L24.6882 8.20673L24.6246 8.18845C24.5903 8.17118 24.5573 8.15159 24.5257 8.1298C24.5037 8.11365 24.4831 8.09576 24.464 8.07631L24.4422 8.0563L24.4062 8.07619Z" fill="#3D8709"/>
</g>
<defs>
<filter id="filter0_d_1_6" x="15.563" y="2.31693" width="18.6223" height="16.9875" filterUnits="userSpaceOnUse" color-interpolation-filters="sRGB">
<feFlood flood-opacity="0" result="BackgroundImageFix"/>
<feColorMatrix in="SourceAlpha" type="matrix" values="0 0 0 0 0 0 0 0 0 0 0 0 0 0 0 0 0 0 127 0" result="hardAlpha"/>
<feOffset dy="4"/>
<feGaussianBlur stdDeviation="2"/>
<feComposite in2="hardAlpha" operator="out"/>
<feColorMatrix type="matrix" values="0 0 0 0 0 0 0 0 0 0 0 0 0 0 0 0 0 0 0.25 0"/>
<feBlend mode="normal" in2="BackgroundImageFix" result="effect1_dropShadow_1_6"/>
<feBlend mode="normal" in="SourceGraphic" in2="effect1_dropShadow_1_6" result="shape"/>
</filter>
</defs>
</svg>
