<svg width="12" height="14" viewBox="0 0 12 14" fill="none" xmlns="http://www.w3.org/2000/svg">
<path d="M0 2.31501C0 2.31501 1.13892 3.40509 2.87928 6.45394C4.61965 9.50279 7.72185 12.0998 10.4211 11.0629C10.4211 11.0629 12.9024 3.84766 0 2.31501Z" fill="#64B900"/>
<path d="M2.88473 3.8675C4.22507 4.91119 5.5256 6.00773 6.76179 7.15591C7.94846 8.33075 9.26734 9.47586 9.99088 10.9909C9.3625 9.43194 8.02817 8.25606 6.8134 7.10587C5.56217 5.96425 4.24805 4.88626 2.87622 3.87615L2.88473 3.8675Z" fill="#3D8709"/>
<path d="M8.99072 9.30395C8.96097 8.6791 8.89152 8.05681 8.78281 7.44083C8.74152 7.21096 8.69188 6.98075 8.63389 6.76942C8.60327 6.66285 8.5741 6.56135 8.54639 6.46493C8.51869 6.36851 8.49243 6.27716 8.45057 6.19855C8.42154 6.12374 8.38774 6.05088 8.34935 5.98041C8.32472 5.92418 8.29538 5.87012 8.26163 5.81883C8.20669 5.73298 8.17358 5.68481 8.17358 5.68481C8.17358 5.68481 8.20415 5.73372 8.25729 5.82283C8.29009 5.87451 8.31857 5.92879 8.34246 5.98515C8.36214 6.05365 8.40617 6.12066 8.4335 6.2062C8.46084 6.29174 8.49834 6.37435 8.5108 6.47516C8.52326 6.57597 8.56768 6.67308 8.5983 6.77965C8.6581 6.98772 8.69176 7.21977 8.72543 7.45183C8.75908 7.68389 8.78948 7.91414 8.81041 8.13062C8.83134 8.34711 8.84608 8.55164 8.85535 8.72754C8.87569 9.07605 8.87666 9.30927 8.87666 9.30927L8.99072 9.30395Z" fill="#3D8709"/>
<path d="M8.69415 6.9892L8.71665 6.95249C8.73634 6.91686 8.75332 6.87982 8.76744 6.84166C8.78669 6.78921 8.80159 6.73528 8.812 6.6804C8.81978 6.65063 8.82582 6.62044 8.83009 6.58997C8.82206 6.56204 8.8362 6.52498 8.83835 6.49412C8.84275 6.46261 8.84466 6.43081 8.84407 6.39901L8.84216 6.30608C8.83956 6.27712 8.83856 6.24804 8.83916 6.21897L8.81799 6.14532C8.80517 6.05279 8.79529 5.98964 8.79529 5.98964C8.79529 5.98964 8.79935 6.05171 8.80781 6.14825C8.81365 6.16856 8.82095 6.19396 8.81298 6.22374C8.80501 6.25352 8.81231 6.27892 8.81016 6.30978L8.80553 6.39909C8.80463 6.43072 8.80076 6.46221 8.79399 6.49313L8.78172 6.58463L8.75709 6.67144C8.74176 6.72154 8.72372 6.77077 8.70306 6.81893C8.68201 6.86072 8.6646 6.89597 8.65116 6.91632L8.6272 6.94795L8.69415 6.9892Z" fill="#3D8709"/>
<path d="M7.44862 7.83534C7.42713 7.37379 7.37592 6.91414 7.29534 6.45921C7.26574 6.28917 7.22851 6.12131 7.18584 5.96327C7.16324 5.88461 7.14209 5.81102 7.12094 5.73744C7.0998 5.66385 7.08157 5.60042 7.04809 5.54137C7.0146 5.48232 6.99674 5.42977 6.97453 5.38121C6.956 5.34007 6.93447 5.30035 6.91011 5.26237L6.8457 5.16278L6.90503 5.26384C6.93067 5.30191 6.9517 5.3429 6.96764 5.38594C6.99376 5.43836 7.01662 5.49233 7.0361 5.54757C7.0536 5.60846 7.07329 5.67697 7.0937 5.74801C7.11413 5.81906 7.13528 5.89264 7.15788 5.97131C7.20235 6.12609 7.22687 6.29759 7.25321 6.46583C7.27953 6.63407 7.29896 6.80704 7.31549 6.96985C7.332 7.13267 7.34161 7.28099 7.34791 7.40829C7.36744 7.67737 7.36398 7.83769 7.36398 7.83769L7.44862 7.83534Z" fill="#3D8709"/>
<path d="M8.99769 9.28001C8.37573 9.3764 7.74815 9.43199 7.11898 9.44642C6.88358 9.45091 6.64853 9.44704 6.42909 9.43046C6.32047 9.42597 6.21474 9.41241 6.11301 9.40319C6.01129 9.39398 5.92008 9.37349 5.82598 9.36208C5.74708 9.34773 5.66906 9.32889 5.59233 9.30563C5.53245 9.29286 5.47382 9.27477 5.41718 9.25158L5.26562 9.19351L5.41825 9.24578C5.48346 9.26771 5.55063 9.28336 5.61884 9.29251C5.69577 9.31336 5.77392 9.32943 5.85284 9.34062C5.93858 9.35169 6.0316 9.36891 6.13769 9.37412C6.24377 9.37934 6.34368 9.39183 6.45412 9.39305C6.67137 9.40202 6.90496 9.40081 7.13818 9.38872C7.37138 9.37662 7.60569 9.35872 7.82254 9.33759C8.0394 9.31647 8.2439 9.29065 8.4157 9.26599C8.7644 9.21521 8.9914 9.17194 8.9914 9.17194L8.99769 9.28001Z" fill="#3D8709"/>
<path d="M7.49477 7.94839C7.03807 8.01939 6.5772 8.0601 6.11516 8.07024C5.94532 8.0755 5.77532 8.0721 5.60583 8.06006C5.52555 8.05842 5.44489 8.04589 5.3715 8.03952C5.29811 8.03314 5.23016 8.01697 5.1644 8.00839C5.1065 7.9978 5.04924 7.98399 4.99289 7.96705C4.94793 7.958 4.90416 7.94385 4.86243 7.92488L4.75122 7.88268L4.86424 7.92162C4.90596 7.93802 4.94916 7.95044 4.99324 7.9587C5.04998 7.97409 5.10762 7.98596 5.16584 7.99425C5.2316 8.00282 5.29882 8.01646 5.37402 8.01956C5.44923 8.02267 5.52662 8.03339 5.6069 8.03503C5.7682 8.04087 5.94148 8.0405 6.11186 8.02999C6.28222 8.01947 6.4584 8.01004 6.61896 7.99411L7.05738 7.93951C7.3218 7.90197 7.48125 7.87262 7.48125 7.87262L7.49477 7.94839Z" fill="#3D8709"/>
<path d="M5.77448 8.06953L5.74832 8.09354C5.72633 8.11257 5.70261 8.12951 5.67747 8.14415C5.64224 8.16594 5.60529 8.18484 5.56699 8.20064L5.50083 8.21965L5.43213 8.2394C5.41003 8.2485 5.38699 8.25512 5.36343 8.25915L5.29981 8.27743L5.23875 8.29498L5.18166 8.29764L5.06494 8.30369L5.17947 8.29002L5.23545 8.27393L5.36013 8.2381C5.38252 8.23298 5.4046 8.22664 5.42629 8.21908L5.49245 8.20007L5.55606 8.18179C5.59032 8.16452 5.62334 8.14492 5.6549 8.12314C5.67689 8.10699 5.69755 8.0891 5.71666 8.06965L5.73846 8.04964L5.77448 8.06953Z" fill="#3D8709"/>
</svg>
