<svg width="19" height="20" viewBox="0 0 19 20" fill="none" xmlns="http://www.w3.org/2000/svg">
<g clip-path="url(#clip0_1_1399)">
<g filter="url(#filter0_d_1_1399)">
<path d="M14.4578 2.3149C14.4578 2.3149 13.3306 3.40493 11.6083 6.45363C9.88595 9.50232 6.81584 12.0992 4.14468 11.0624C4.14468 11.0624 1.68896 3.84747 14.4578 2.3149Z" fill="#64B900"/>
<path d="M11.6029 3.86731C10.2764 4.91095 8.98938 6.00743 7.766 7.15556C6.59158 8.33034 5.28636 9.4754 4.57032 10.9904C5.19223 9.43147 6.51268 8.25565 7.71489 7.10552C8.95321 5.96395 10.2537 4.88602 11.6113 3.87596L11.6029 3.86731Z" fill="#3D8709"/>
<path d="M5.55997 9.3035C5.58943 8.67868 5.65815 8.05642 5.76572 7.44047C5.80666 7.21061 5.8558 6.98041 5.91314 6.76909C5.9434 6.66252 5.97227 6.56103 5.99976 6.46462C6.02714 6.3682 6.05315 6.27686 6.09458 6.19825C6.12325 6.12345 6.15677 6.05059 6.19473 5.98012C6.21906 5.92389 6.24813 5.86984 6.28154 5.81855C6.33592 5.73271 6.36865 5.68454 6.36865 5.68454C6.36865 5.68454 6.3384 5.73345 6.2858 5.82255C6.25337 5.87422 6.22519 5.92851 6.20156 5.98486C6.18208 6.05336 6.13847 6.12037 6.11148 6.2059C6.08439 6.29144 6.04731 6.37405 6.03496 6.47485C6.0226 6.57565 5.9787 6.67275 5.94834 6.77932C5.88921 6.98738 5.8559 7.21943 5.82258 7.45147C5.78925 7.68352 5.7592 7.91376 5.73843 8.13023C5.71777 8.34671 5.70314 8.55123 5.69394 8.72711C5.67387 9.07561 5.67288 9.30881 5.67288 9.30881L5.55997 9.3035Z" fill="#3D8709"/>
<path d="M5.85355 6.98891L5.83126 6.9522C5.81175 6.91657 5.79491 6.87953 5.78094 6.84137C5.76192 6.78892 5.74716 6.73499 5.73686 6.68011C5.72914 6.65034 5.72309 6.62015 5.71893 6.58968C5.72686 6.56175 5.71289 6.52469 5.71071 6.49383C5.70635 6.46232 5.70447 6.43052 5.70506 6.39872L5.70695 6.30579C5.70952 6.27683 5.71051 6.24775 5.70992 6.21868L5.73092 6.14503C5.7436 6.0525 5.7534 5.98935 5.7534 5.98935C5.7534 5.98935 5.74934 6.05142 5.74092 6.14796C5.73518 6.16827 5.72795 6.19367 5.73587 6.22345C5.7437 6.25323 5.73656 6.27863 5.73864 6.30949L5.7432 6.3988C5.74409 6.43043 5.74796 6.46192 5.75469 6.49284L5.76678 6.58434L5.79124 6.67115C5.8064 6.72125 5.82423 6.77048 5.84474 6.81864C5.86554 6.86043 5.88287 6.89568 5.89615 6.91603L5.91992 6.94766L5.85355 6.98891Z" fill="#3D8709"/>
<path d="M7.0864 7.83495C7.10766 7.37343 7.15838 6.9138 7.23808 6.4589C7.26734 6.28886 7.30422 6.12102 7.34644 5.96297C7.36879 5.88432 7.38975 5.81074 7.41071 5.73716C7.43157 5.66358 7.44967 5.60015 7.48279 5.5411C7.51591 5.48206 7.53361 5.4295 7.55556 5.38094C7.57395 5.33981 7.59521 5.30009 7.61933 5.26212L7.68311 5.16253L7.62438 5.26359C7.59896 5.30165 7.5782 5.34264 7.56238 5.38568C7.53658 5.43809 7.51393 5.49207 7.49465 5.5473C7.47735 5.60818 7.45787 5.67669 7.4376 5.74773C7.41743 5.81878 7.39647 5.89236 7.37413 5.97102C7.33013 6.12579 7.3058 6.29728 7.2798 6.46551C7.2537 6.63375 7.23452 6.8067 7.2182 6.96951C7.20179 7.13232 7.1923 7.28064 7.18607 7.40793C7.16679 7.67699 7.17015 7.83731 7.17015 7.83731L7.0864 7.83495Z" fill="#3D8709"/>
<path d="M5.55341 9.27956C6.1689 9.37594 6.79002 9.43154 7.41263 9.44596C7.64567 9.45045 7.87822 9.44658 8.09545 9.43C8.20292 9.42551 8.30753 9.41195 8.40818 9.40273C8.50893 9.39352 8.59915 9.37304 8.69227 9.36163C8.77037 9.34728 8.84757 9.32844 8.9235 9.30518C8.98276 9.29241 9.04078 9.27432 9.09685 9.25113L9.24683 9.19306L9.09578 9.24533C9.03124 9.26726 8.96477 9.28291 8.89727 9.29206C8.82115 9.31291 8.7438 9.32897 8.66569 9.34017C8.58083 9.35124 8.48876 9.36845 8.38376 9.37367C8.27886 9.37888 8.17988 9.39137 8.07063 9.39259C7.85568 9.40156 7.62451 9.40035 7.39364 9.38826C7.16287 9.37616 6.93101 9.35827 6.71636 9.33714C6.5018 9.31602 6.29941 9.2902 6.12935 9.26554C5.78428 9.21477 5.55964 9.17149 5.55964 9.17149L5.55341 9.27956Z" fill="#3D8709"/>
<path d="M7.04069 7.948C7.49264 8.019 7.94874 8.05971 8.40603 8.06985C8.57413 8.0751 8.74236 8.07171 8.91009 8.05967C8.98954 8.05803 9.06937 8.0455 9.14199 8.03912C9.21463 8.03275 9.28187 8.01657 9.34695 8.008C9.40426 7.99741 9.46092 7.9836 9.51669 7.96666C9.56118 7.95761 9.60449 7.94346 9.6458 7.92449L9.75586 7.88229L9.644 7.92123C9.60271 7.93763 9.55996 7.95005 9.51634 7.95832C9.46019 7.9737 9.40314 7.98557 9.34553 7.99385C9.28045 8.00243 9.21392 8.01606 9.1395 8.01917C9.06508 8.02228 8.98849 8.033 8.90904 8.03464C8.7494 8.04047 8.57791 8.0401 8.40929 8.02959C8.24071 8.01908 8.0663 8.00965 7.90741 7.99372L7.47356 7.93912C7.21184 7.90159 7.05413 7.87223 7.05413 7.87223L7.04069 7.948Z" fill="#3D8709"/>
<path d="M8.74377 8.06912L8.76963 8.09311C8.79137 8.11212 8.81483 8.12905 8.83968 8.14368C8.87452 8.16545 8.91105 8.18433 8.94892 8.20012L9.01433 8.21911L9.08226 8.23884C9.10411 8.24793 9.1269 8.25455 9.15018 8.25857L9.21309 8.27684L9.27347 8.29437L9.32991 8.29703L9.44531 8.30308L9.33207 8.28942L9.27672 8.27334L9.15345 8.23754C9.13131 8.23243 9.10948 8.22609 9.08803 8.21854L9.02262 8.19955L8.95973 8.18128C8.92586 8.16403 8.8932 8.14444 8.862 8.12268C8.84026 8.10655 8.81984 8.08867 8.80093 8.06924L8.77938 8.04925L8.74377 8.06912Z" fill="#3D8709"/>
</g>
</g>
<defs>
<filter id="filter0_d_1_1399" x="-0.039433" y="2.3149" width="18.4917" height="16.9686" filterUnits="userSpaceOnUse" color-interpolation-filters="sRGB">
<feFlood flood-opacity="0" result="BackgroundImageFix"/>
<feColorMatrix in="SourceAlpha" type="matrix" values="0 0 0 0 0 0 0 0 0 0 0 0 0 0 0 0 0 0 127 0" result="hardAlpha"/>
<feOffset dy="3.99451"/>
<feGaussianBlur stdDeviation="1.99726"/>
<feComposite in2="hardAlpha" operator="out"/>
<feColorMatrix type="matrix" values="0 0 0 0 0 0 0 0 0 0 0 0 0 0 0 0 0 0 0.25 0"/>
<feBlend mode="normal" in2="BackgroundImageFix" result="effect1_dropShadow_1_1399"/>
<feBlend mode="normal" in="SourceGraphic" in2="effect1_dropShadow_1_1399" result="shape"/>
</filter>
<clipPath id="clip0_1_1399">
<rect width="18.4125" height="19.2875" fill="white" transform="matrix(-1 0 0 1 18.4126 0)"/>
</clipPath>
</defs>
</svg>
