<svg width="40" height="40" viewBox="0 0 40 40" fill="none" xmlns="http://www.w3.org/2000/svg">
<path d="M36.6663 20H26.6663L23.333 25H16.6663L13.333 20H3.33301" stroke="#64B900" stroke-width="3.33333" stroke-linecap="round" stroke-linejoin="round"/>
<path d="M9.08301 8.51663L3.33301 20V30C3.33301 30.884 3.6842 31.7319 4.30932 32.357C4.93444 32.9821 5.78229 33.3333 6.66634 33.3333H33.333C34.2171 33.3333 35.0649 32.9821 35.69 32.357C36.3152 31.7319 36.6663 30.884 36.6663 30V20L30.9163 8.51663C30.6404 7.96127 30.215 7.49391 29.6879 7.16709C29.1609 6.84027 28.5531 6.66696 27.933 6.66663H12.0663C11.4462 6.66696 10.8384 6.84027 10.3114 7.16709C9.78438 7.49391 9.35897 7.96127 9.08301 8.51663Z" stroke="#64B900" stroke-width="3.33333" stroke-linecap="round" stroke-linejoin="round"/>
</svg>
