<svg width="32" height="32" viewBox="0 0 32 32" fill="none" xmlns="http://www.w3.org/2000/svg">
<path d="M13.3333 14.6666L28 15.8666C28.33 15.9315 28.6233 16.1187 28.8211 16.3907C29.0189 16.6627 29.1066 16.9994 29.0667 17.3333L28.18 22.8773C28.1299 23.1905 27.9697 23.4757 27.7283 23.6814C27.4868 23.8872 27.1799 24.0001 26.8627 24H26.6667" stroke="white" stroke-width="2.66667" stroke-linecap="round" stroke-linejoin="round"/>
<path d="M21.3333 24H14.6667" stroke="white" stroke-width="2.66667" stroke-linecap="round" stroke-linejoin="round"/>
<path d="M24 6.66663C23.6464 6.66663 23.3072 6.8071 23.0572 7.05715C22.8071 7.3072 22.6667 7.64634 22.6667 7.99996V15.4306" stroke="white" stroke-width="2.66667" stroke-linecap="round" stroke-linejoin="round"/>
<path d="M4 5.33337H14.8387C15.1605 5.33356 15.4714 5.45015 15.714 5.66164C15.9567 5.87312 16.1146 6.16523 16.1587 6.48404L17.3333 14.9947" stroke="white" stroke-width="2.66667" stroke-linecap="round" stroke-linejoin="round"/>
<path d="M5.33334 14.6667V5.33337" stroke="white" stroke-width="2.66667" stroke-linecap="round" stroke-linejoin="round"/>
<path d="M9.33334 20H9.34667" stroke="white" stroke-width="2.66667" stroke-linecap="round" stroke-linejoin="round"/>
<path d="M10.6667 13.4667V5.33337" stroke="white" stroke-width="2.66667" stroke-linecap="round" stroke-linejoin="round"/>
<path d="M24 26.6667C25.4728 26.6667 26.6667 25.4728 26.6667 24C26.6667 22.5273 25.4728 21.3334 24 21.3334C22.5272 21.3334 21.3333 22.5273 21.3333 24C21.3333 25.4728 22.5272 26.6667 24 26.6667Z" stroke="white" stroke-width="2.66667" stroke-linecap="round" stroke-linejoin="round"/>
<path d="M9.33333 26.6667C13.0152 26.6667 16 23.6819 16 20C16 16.3181 13.0152 13.3334 9.33333 13.3334C5.65143 13.3334 2.66666 16.3181 2.66666 20C2.66666 23.6819 5.65143 26.6667 9.33333 26.6667Z" stroke="white" stroke-width="2.66667" stroke-linecap="round" stroke-linejoin="round"/>
</svg>
