<svg width="64" height="64" viewBox="0 0 64 64" fill="none" xmlns="http://www.w3.org/2000/svg">
<path d="M42.6663 56V50.6667C42.6663 47.8377 41.5425 45.1246 39.5421 43.1242C37.5418 41.1238 34.8287 40 31.9997 40H15.9997C13.1707 40 10.4576 41.1238 8.4572 43.1242C6.45681 45.1246 5.33301 47.8377 5.33301 50.6667V56" stroke="white" stroke-width="5.33333" stroke-linecap="round" stroke-linejoin="round"/>
<path d="M23.9997 29.3333C29.8907 29.3333 34.6663 24.5577 34.6663 18.6667C34.6663 12.7756 29.8907 8 23.9997 8C18.1086 8 13.333 12.7756 13.333 18.6667C13.333 24.5577 18.1086 29.3333 23.9997 29.3333Z" stroke="white" stroke-width="5.33333" stroke-linecap="round" stroke-linejoin="round"/>
<path d="M50.667 21.3333V37.3333" stroke="white" stroke-width="5.33333" stroke-linecap="round" stroke-linejoin="round"/>
<path d="M58.667 29.3333H42.667" stroke="white" stroke-width="5.33333" stroke-linecap="round" stroke-linejoin="round"/>
</svg>
